<svg xmlns="http://www.w3.org/2000/svg" width="858" height="200" viewBox="0 0 858 200">
  <defs>
    <style>
      .cls-1 {
        fill: #fff;
      }

      .cls-2 {
        fill: #222;
        fill-rule: evenodd;
      }
    </style>
  </defs>
  <svg id="logo-mark" width="200" height="200" xmlns="http://www.w3.org/2000/svg" viewBox="0 0 200 200" x="0" y="0"></svg>
  <path id="line-logo-type" class="cls-2" d="M231.759,150.225h18.46V79.546h-18.46v70.679Zm9.357-82.038c6.322,0,11-4.291,11-10.1,0-6.058-4.678-10.1-11-10.1-6.449,0-11.127,4.039-11.127,10.1C229.989,63.9,234.667,68.187,241.116,68.187Zm51.129,83.805c7.333,0,14.413-4.039,19.6-9.087h0.38l1.517,7.32h15.046V49.507H310.2V74.371l0.758,11.107c-5.057-4.67-9.988-7.7-17.954-7.7-15.3,0-29.713,14.136-29.713,37.233S274.67,151.992,292.245,151.992Zm4.8-15.272c-9.356,0-14.667-7.32-14.667-21.961,0-14.135,6.7-21.708,14.667-21.708a18.831,18.831,0,0,1,13.15,5.3V129.4C306.153,134.7,301.98,136.72,297.049,136.72Zm80.008,15.272a44.72,44.72,0,0,0,24.782-7.825l-6.322-11.359a29.224,29.224,0,0,1-15.931,4.922c-10.5,0-18.081-6.058-19.6-17.67h43.621a34.4,34.4,0,0,0,.885-8.456c0-19.563-10.115-33.825-29.586-33.825-16.943,0-33,14.262-33,37.233C341.907,138.235,357.333,151.992,377.057,151.992Zm-17.322-44.174c1.391-10.35,7.966-15.651,15.425-15.651,9.1,0,13.4,6.058,13.4,15.651H359.735Zm74.027,44.174c8.092,0,15.173-4.039,21.368-9.34h0.379l1.391,7.573h15.173V108.954c0-20.447-9.23-31.175-27.184-31.175-11.127,0-21.242,4.165-29.587,9.34L422,99.361c6.575-3.786,12.9-6.689,19.472-6.689,8.724,0,11.759,5.3,12.011,12.243-28.448,3.029-40.713,10.98-40.713,26.126C412.773,143.031,421.118,151.992,433.762,151.992Zm6.069-14.514c-5.437,0-9.356-2.4-9.356-7.952,0-6.31,5.816-10.98,23.011-13.252v14.262C449.061,134.953,445.142,137.478,439.831,137.478Zm48.663,12.747h18.46V101.633q7.585-7.951,13.655-7.951c6.7,0,9.862,3.913,9.862,14.767v41.776h18.587V101.633q7.586-7.951,13.655-7.951c6.7,0,9.862,3.913,9.862,14.767v41.776h18.587V106.177c0-17.8-6.954-28.4-22-28.4-9.23,0-16.057,5.553-22.506,12.369-3.413-7.825-9.356-12.369-19.471-12.369-9.23,0-15.8,5.049-21.747,11.233h-0.506l-1.264-9.466H488.494v70.679Zm136.473,1.767c8.092,0,15.173-4.039,21.368-9.34h0.379l1.391,7.573h15.173V108.954c0-20.447-9.23-31.175-27.184-31.175-11.127,0-21.242,4.165-29.587,9.34l6.7,12.243c6.575-3.786,12.9-6.689,19.472-6.689,8.724,0,11.759,5.3,12.011,12.243-28.448,3.029-40.713,10.98-40.713,26.126C603.978,143.031,612.323,151.992,624.967,151.992Zm6.069-14.514c-5.437,0-9.356-2.4-9.356-7.952,0-6.31,5.816-10.98,23.011-13.252v14.262C640.266,134.953,636.347,137.478,631.036,137.478ZM679.7,150.225h18.46V101.633c5.31-5.174,8.977-7.951,14.793-7.951,6.954,0,9.989,3.913,9.989,14.767v41.776h18.586V106.177c0-17.8-6.575-28.4-21.874-28.4-9.609,0-16.816,5.049-23.011,11.107h-0.506l-1.264-9.34H679.7v70.679Zm79.577-53.514c12.771-6.437,19.092-16.155,19.092-29.155,0-10.854-4.3-17.165-12.264-17.165-5.943,0-10.115,4.165-10.115,10.6,0,6.058,4.678,9.718,10.115,9.718a4.3,4.3,0,0,0,1.264-.126c-0.126,8.33-4.172,13.5-12.264,18.049ZM809.8,151.992c18.46,0,28.2-9.971,28.2-22.34,0-13.126-10.368-17.8-19.724-21.33-7.46-2.776-14.414-4.669-14.414-9.844,0-4.039,3.035-6.815,9.357-6.815,5.31,0,10.241,2.524,15.3,6.058l8.344-11.233c-5.942-4.418-13.781-8.709-24.149-8.709-15.931,0-26.3,8.961-26.3,21.709,0,11.737,10.368,17.165,19.345,20.572,7.46,2.9,14.793,5.3,14.793,10.6,0,4.418-3.161,7.447-10.242,7.447-6.574,0-12.643-2.777-18.965-7.7l-8.472,11.611C789.823,147.827,800.317,151.992,809.8,151.992Z"/>
</svg>
