<svg xmlns="http://www.w3.org/2000/svg" width="854" height="200" viewBox="0 0 858 200">
  <defs>
    <style>
      .cls-1 {
        fill: #444;
        fill-rule: evenodd;
      }
    </style>
  </defs>
  <path id="logo-type" class="cls-1" d="M296.609,70.656q-0.235,7.067-5.449,14.186t-10.019,9.334v13.5a51.559,51.559,0,0,0,8.554-4.535q5.625-3.482,11.367-11.338A52.941,52.941,0,0,0,309.5,72.871V59.582H235.906V70.656h60.7Zm-60.7,69.4a49.513,49.513,0,0,0,9.9-3.8,64.251,64.251,0,0,0,11.718-7.7,35.211,35.211,0,0,0,9.961-13.711q3.807-8.754,4.043-21.094v-7.8h-12.3v7.172q-0.118,11.814-3.868,18.774a30.058,30.058,0,0,1-8.613,10.441,38.549,38.549,0,0,1-10.84,5.379v12.34ZM371.935,58.633a99.839,99.839,0,0,1-17.812,20.936A108.822,108.822,0,0,1,334.728,93.6a164.582,164.582,0,0,1-19.629,9.123v11.918q22.149-8.227,35.859-18.035v43.875h12.657V86.793A93.773,93.773,0,0,0,377.15,72.66a100.746,100.746,0,0,0,9.785-14.027h-15Zm90.444,18.035V60.215h-7.5V76.668h7.5Zm11.719,0V60.215h-7.5V76.668h7.5ZM433.668,98.5q-0.939,11.708-5.8,17.191a30.779,30.779,0,0,1-11.367,8.174,40.906,40.906,0,0,1-13.067,3.112v11.285a61.74,61.74,0,0,0,13.242-2.637,51.694,51.694,0,0,0,13.067-6.223,38.062,38.062,0,0,0,10.84-11.021q4.569-6.907,5.976-19.881h24.375V87.637H400.153V98.5h33.515Zm16.758-27.211V60.215H403.434V71.289h46.992Zm98.763-.633q-0.235,7.067-5.449,14.186t-10.019,9.334v13.5a51.6,51.6,0,0,0,8.554-4.535Q547.9,99.659,553.642,91.8a52.941,52.941,0,0,0,8.438-18.932V59.582H488.486V70.656h60.7Zm-60.7,69.4a49.513,49.513,0,0,0,9.9-3.8,64.251,64.251,0,0,0,11.718-7.7,35.211,35.211,0,0,0,9.961-13.711q3.807-8.754,4.043-21.094v-7.8H511.806v7.172q-0.117,11.814-3.867,18.774a30.058,30.058,0,0,1-8.613,10.441,38.549,38.549,0,0,1-10.84,5.379v12.34Zm147.2-67.711a43.562,43.562,0,0,1-5.8,17.3,67.389,67.389,0,0,1-9.609,12.5,48.8,48.8,0,0,1-11.895,8.7L595.844,92.383H581.079l30.234,44.508H626.2l-11.25-16.243a106.9,106.9,0,0,0,14.238-10.7A63.455,63.455,0,0,0,640.9,95.178q5.449-9.121,7.676-22.728v-11.5H577.094V72.344h58.594Zm60.39,0.422V61.375H665.14V72.766h30.938Zm27.539,6.328a71.368,71.368,0,0,1-11.836,21.568A73.323,73.323,0,0,1,696.2,114.9a55.882,55.882,0,0,1-16.172,7.752,72.805,72.805,0,0,1-14.883,2.532V137.1a98.63,98.63,0,0,0,17.93-3.481,81.187,81.187,0,0,0,19.453-8.912q10.311-6.275,19.922-18.141a77.92,77.92,0,0,0,14.18-27.474H723.617Zm70.965-7.172a94.434,94.434,0,0,1-14.356,24.891,128.417,128.417,0,0,1-16.875,17.3,100.337,100.337,0,0,1-17.4,11.707v12.657a95.03,95.03,0,0,0,9.844-4.957,104.43,104.43,0,0,0,13.476-9.229,138.154,138.154,0,0,0,16.289-15.767,142.05,142.05,0,0,0,13.36,14.712,125.774,125.774,0,0,0,10.957,9.176q5.1,3.746,6.855,4.9V122.969a130.519,130.519,0,0,1-12.187-10.653,150.448,150.448,0,0,1-11.367-12.972,143.865,143.865,0,0,0,11.6-19.512,100.987,100.987,0,0,0,5.391-13.711h7.851V50.934h-8.086v9.7H750.285V71.922h44.3Zm36.094-5.8V50.934H822.59V66.121h8.086Z"/>
  <rect id="logo-mark" width="200" height="200"/>
</svg>
