<svg xmlns="http://www.w3.org/2000/svg" width="800" height="420" viewBox="0 0 800 420">
  <defs>
    <style>
      .cls-1 {
        fill: #444;
        fill-rule: evenodd;
      }
    </style>
  </defs>
  <path id="logo-type" class="cls-1" d="M4.325,415H27.686V325.4H4.325V415Zm11.84-104c8,0,13.92-5.44,13.92-12.8,0-7.68-5.92-12.8-13.92-12.8-8.16,0-14.08,5.12-14.08,12.8C2.085,305.558,8.005,311,16.165,311ZM84.484,417.24c9.28,0,18.24-5.12,24.8-11.52h0.48l1.92,9.28h19.041V287.317H107.2v31.521l0.96,14.08c-6.4-5.92-12.64-9.76-22.72-9.76-19.36,0-37.6,17.92-37.6,47.2S62.243,417.24,84.484,417.24Zm6.08-19.36C78.723,397.88,72,388.6,72,370.039c0-17.92,8.48-27.521,18.56-27.521a23.8,23.8,0,0,1,16.64,6.721V388.6C102.084,395.32,96.8,397.88,90.564,397.88Zm104.319,19.36a56.524,56.524,0,0,0,31.361-9.92l-8-14.4c-6.4,4-12.8,6.24-20.161,6.24-13.28,0-22.88-7.681-24.8-22.4h55.2a43.709,43.709,0,0,0,1.12-10.72c0-24.8-12.8-42.881-37.441-42.881-21.44,0-41.761,18.08-41.761,47.2C150.4,399.8,169.923,417.24,194.883,417.24Zm-21.92-56c1.76-13.121,10.08-19.841,19.52-19.841,11.52,0,16.961,7.68,16.961,19.841H172.963Zm95.84,56c10.24,0,19.2-5.12,27.041-11.84h0.48l1.76,9.6h19.2V362.679c0-25.921-11.68-39.521-34.4-39.521-14.08,0-26.88,5.28-37.44,11.84l8.48,15.521c8.32-4.8,16.32-8.481,24.64-8.481,11.041,0,14.881,6.72,15.2,15.521-36,3.84-51.522,13.92-51.522,33.12C242.242,405.88,252.8,417.24,268.8,417.24Zm7.68-18.4c-6.88,0-11.84-3.04-11.84-10.081,0-8,7.36-13.92,29.121-16.8v18.08C288.164,395.64,283.2,398.84,276.483,398.84Zm64.8,16.16h23.36V353.4q9.6-10.082,17.281-10.081c8.48,0,12.48,4.96,12.48,18.721V415h23.52V353.4q9.6-10.082,17.281-10.081c8.48,0,12.48,4.96,12.48,18.721V415H471.2V359.159c0-22.561-8.8-36-27.841-36-11.68,0-20.32,7.04-28.481,15.68-4.32-9.92-11.84-15.68-24.64-15.68-11.68,0-20,6.4-27.521,14.24h-0.64l-1.6-12h-19.2V415ZM517.6,417.24c10.241,0,19.2-5.12,27.041-11.84h0.48l1.76,9.6h19.2V362.679c0-25.921-11.681-39.521-34.4-39.521-14.081,0-26.881,5.28-37.441,11.84l8.48,15.521c8.32-4.8,16.32-8.481,24.641-8.481,11.04,0,14.88,6.72,15.2,15.521-36,3.84-51.521,13.92-51.521,33.12C491.039,405.88,501.6,417.24,517.6,417.24Zm7.681-18.4c-6.881,0-11.841-3.04-11.841-10.081,0-8,7.361-13.92,29.121-16.8v18.08C536.96,395.64,532,398.84,525.28,398.84Zm64.8,16.16h23.361V353.4c6.72-6.561,11.36-10.081,18.72-10.081,8.8,0,12.64,4.96,12.64,18.721V415h23.521V359.159c0-22.561-8.32-36-27.681-36-12.16,0-21.28,6.4-29.12,14.08h-0.64l-1.6-11.84h-19.2V415Zm104-67.842c16.16-8.16,24.16-20.48,24.16-36.96,0-13.761-5.44-21.761-15.52-21.761-7.52,0-12.8,5.28-12.8,13.44,0,7.681,5.921,12.321,12.8,12.321a5.443,5.443,0,0,0,1.6-.16c-0.16,10.56-5.28,17.12-15.521,22.88Zm65.28,70.082c23.36,0,35.681-12.64,35.681-28.321,0-16.64-13.121-22.56-24.961-27.04-9.44-3.52-18.24-5.92-18.24-12.481,0-5.12,3.84-8.64,11.84-8.64,6.72,0,12.96,3.2,19.36,7.68L793.6,334.2c-7.521-5.6-17.441-11.04-30.561-11.04-20.161,0-33.281,11.36-33.281,27.521,0,14.88,13.12,21.76,24.481,26.08,9.44,3.68,18.72,6.72,18.72,13.44,0,5.6-4,9.441-12.96,9.441-8.32,0-16-3.52-24-9.761L725.276,404.6C734.076,411.96,747.357,417.24,759.357,417.24Z"/>
  <rect id="logo-mark" y="0" width="800" height="280"/>
</svg>
