<svg xmlns="http://www.w3.org/2000/svg" width="800" height="420" viewBox="0 0 800 420">
  <defs>
    <style>
      .cls-1 {
        fill: #444;
        fill-rule: evenodd;
      }
    </style>
  </defs>
  <path id="logo-type" class="cls-1" d="M90.613,310.015q-0.335,10.011-7.72,20.1T68.7,343.334v19.125a73.07,73.07,0,0,0,12.119-6.425q7.969-4.93,16.1-16.062a75,75,0,0,0,11.953-26.82V294.326H4.617v15.689h86Zm-86,98.314a70.075,70.075,0,0,0,14.028-5.379,90.941,90.941,0,0,0,16.6-10.907q8.716-7.021,14.111-19.424t5.727-29.883V331.68H37.654v10.16q-0.167,16.736-5.478,26.6t-12.2,14.792a54.594,54.594,0,0,1-15.356,7.62v17.481ZM188.825,292.981A141.418,141.418,0,0,1,163.59,322.64a154.12,154.12,0,0,1-27.475,19.872,233.078,233.078,0,0,1-27.808,12.925V372.32q31.377-11.654,50.8-25.549v62.156h17.93V332.875a132.806,132.806,0,0,0,19.174-20.021q9.876-12.4,13.863-19.873h-21.25Zm119.629,25.55V295.223H297.829v23.308h10.625Zm16.6,0V295.223H314.431v23.308h10.625ZM267.78,349.46q-1.331,16.586-8.217,24.354a43.586,43.586,0,0,1-16.1,11.58,57.926,57.926,0,0,1-18.511,4.408v15.987a87.509,87.509,0,0,0,18.76-3.735,73.241,73.241,0,0,0,18.511-8.816,53.905,53.905,0,0,0,15.356-15.613q6.476-9.785,8.467-28.165h34.531V334.07H220.3v15.39h47.48Zm23.741-38.549V295.223H224.948v15.688h66.573Zm131.414-.9q-0.334,10.011-7.72,20.1t-14.194,13.223v19.125a73.1,73.1,0,0,0,12.119-6.425q7.968-4.93,16.1-16.062a75.007,75.007,0,0,0,11.954-26.82V294.326H336.939v15.689h86Zm-86,98.314a70.081,70.081,0,0,0,14.028-5.379,90.936,90.936,0,0,0,16.6-10.907q8.715-7.021,14.111-19.424t5.728-29.883V331.68H369.976v10.16q-0.168,16.736-5.479,26.6t-12.2,14.792a54.6,54.6,0,0,1-15.356,7.62v17.481ZM536.975,312.4a61.731,61.731,0,0,1-8.218,24.5,95.479,95.479,0,0,1-13.613,17.706,69.119,69.119,0,0,1-16.851,12.326l-17.764-26.147H459.611l42.832,63.053h21.084l-15.937-23.01a151.548,151.548,0,0,0,20.171-15.166,89.871,89.871,0,0,0,16.6-20.918q7.721-12.921,10.874-32.2V296.269H453.967V312.4h83.008Zm77.052,0.6V296.866H570.2V313h43.828Zm39.014,8.965q-6.642,18.378-16.768,30.555a103.918,103.918,0,0,1-22.08,20.171,79.241,79.241,0,0,1-22.91,10.982,103.118,103.118,0,0,1-21.084,3.586v16.884a139.736,139.736,0,0,0,25.4-4.931,115.021,115.021,0,0,0,27.559-12.626q14.607-8.887,28.223-25.7a110.409,110.409,0,0,0,20.088-38.922H653.041Zm92.033-10.16q-8.3,20.619-20.337,35.261a181.949,181.949,0,0,1-23.906,24.5,142.2,142.2,0,0,1-24.653,16.585v17.93a134.308,134.308,0,0,0,13.945-7.023,147.839,147.839,0,0,0,19.092-13.073,195.767,195.767,0,0,0,23.076-22.338A201.441,201.441,0,0,0,751.217,384.5a178.853,178.853,0,0,0,15.522,13q7.222,5.3,9.712,6.947v-20.32a184.842,184.842,0,0,1-17.265-15.091,213.073,213.073,0,0,1-16.1-18.378,203.74,203.74,0,0,0,16.436-27.641,143.034,143.034,0,0,0,7.636-19.424h11.123V282.074H766.822V295.82h-84.5v15.988h62.754Zm51.133-8.218V282.074H784.752V303.59h11.455Z"/>
  <rect id="logo-mark" y="0" width="800" height="280"/>
</svg>
