<svg xmlns="http://www.w3.org/2000/svg" width="800" height="450" viewBox="0 0 800 450">
<defs>
    <style>
      .cls-1 {
        fill: #fff;
        fill-rule: evenodd;
      }
    </style>
  </defs>
  <rect id="logo-mark" y="-105" width="800" height="660"/>
  <path id="logo-type" class="cls-1" d="M585.563,432.437h5.892V410.01h-5.892v22.427Zm2.986-26.032a3.274,3.274,0,0,0,3.511-3.2,3.548,3.548,0,0,0-7.062,0A3.287,3.287,0,0,0,588.549,406.405ZM605.781,433a9.4,9.4,0,0,0,6.255-2.884h0.121l0.485,2.323h4.8V400.478h-5.932v7.89l0.242,3.524a7.807,7.807,0,0,0-5.731-2.443c-4.883,0-9.484,4.486-9.484,11.814S600.171,433,605.781,433Zm1.533-4.846c-2.986,0-4.681-2.323-4.681-6.969,0-4.485,2.139-6.888,4.681-6.888a6.03,6.03,0,0,1,4.2,1.682v9.852A5.04,5.04,0,0,1,607.314,428.152ZM633.627,433a14.34,14.34,0,0,0,7.91-2.483l-2.018-3.6a9.368,9.368,0,0,1-5.085,1.562c-3.35,0-5.771-1.922-6.256-5.607H642.1a10.882,10.882,0,0,0,.282-2.683c0-6.207-3.228-10.733-9.443-10.733-5.408,0-10.534,4.526-10.534,11.814C622.407,428.632,627.331,433,633.627,433ZM628.1,418.981c0.444-3.284,2.542-4.966,4.923-4.966,2.906,0,4.278,1.922,4.278,4.966h-9.2ZM652.271,433a10.669,10.669,0,0,0,6.821-2.964h0.121l0.444,2.4H664.5v-13.1c0-6.488-2.946-9.892-8.676-9.892a18.152,18.152,0,0,0-9.444,2.964l2.139,3.884a12.838,12.838,0,0,1,6.215-2.122c2.785,0,3.753,1.682,3.834,3.884-9.08.962-13,3.485-13,8.29A6.4,6.4,0,0,0,652.271,433Zm1.937-4.606c-1.735,0-2.986-.761-2.986-2.523,0-2,1.856-3.484,7.345-4.205v4.525C657.154,427.591,655.9,428.392,654.208,428.392Zm16.344,4.045h5.892V417.018q2.421-2.523,4.359-2.523c2.139,0,3.148,1.242,3.148,4.686v13.256h5.932V417.018q2.421-2.523,4.359-2.523c2.139,0,3.148,1.242,3.148,4.686v13.256h5.932V418.46c0-5.647-2.22-9.011-7.022-9.011-2.946,0-5.125,1.762-7.184,3.925a6.152,6.152,0,0,0-6.215-3.925c-2.946,0-5.044,1.6-6.941,3.564H675.8l-0.4-3h-4.843v22.427ZM715.024,433a10.669,10.669,0,0,0,6.821-2.964h0.121l0.444,2.4h4.843v-13.1c0-6.488-2.947-9.892-8.677-9.892a18.152,18.152,0,0,0-9.444,2.964l2.139,3.884a12.841,12.841,0,0,1,6.215-2.122c2.785,0,3.753,1.682,3.834,3.884-9.08.962-13,3.485-13,8.29A6.4,6.4,0,0,0,715.024,433Zm1.937-4.606c-1.735,0-2.986-.761-2.986-2.523,0-2,1.856-3.484,7.345-4.205v4.525C719.908,427.591,718.656,428.392,716.961,428.392Zm16.344,4.045H739.2V417.018c1.7-1.642,2.866-2.523,4.722-2.523,2.22,0,3.188,1.242,3.188,4.686v13.256h5.933V418.46c0-5.647-2.1-9.011-6.982-9.011-3.067,0-5.368,1.6-7.345,3.524h-0.161l-0.4-2.963h-4.843v22.427Zm26.232-16.981c4.076-2.042,6.093-5.126,6.093-9.251,0-3.444-1.372-5.446-3.914-5.446a3.125,3.125,0,0,0-3.229,3.364,3.051,3.051,0,0,0,3.229,3.083,1.381,1.381,0,0,0,.4-0.04c-0.04,2.644-1.331,4.286-3.914,5.727ZM776,433c5.892,0,9-3.164,9-7.089,0-4.165-3.31-5.647-6.3-6.768-2.381-.881-4.6-1.482-4.6-3.124,0-1.282.969-2.163,2.987-2.163a8.733,8.733,0,0,1,4.883,1.923l2.663-3.565a12.71,12.71,0,0,0-7.708-2.763c-5.085,0-8.394,2.844-8.394,6.888,0,3.725,3.309,5.447,6.175,6.528,2.381,0.921,4.721,1.682,4.721,3.364,0,1.4-1.009,2.363-3.269,2.363a9.852,9.852,0,0,1-6.053-2.443l-2.7,3.685A14.307,14.307,0,0,0,776,433Z"/>
</svg>
